Coordinates
version=1
nRows=10
nColumns=34
inDegrees=yes

Units are S.I. units (second, meters, Newtons, ...)
If the header above contains a line with 'inDegrees', this indicates whether rotational values are in degrees (yes) or radians (no).

endheader
time	pelvis_tilt	pelvis_list	pelvis_rotation	pelvis_tx	pelvis_ty	pelvis_tz	hip_flexion_r	hip_adduction_r	hip_rotation_r	knee_angle_r	ankle_angle_r	subtalar_angle_r	mtp_angle_r	hip_flexion_l	hip_adduction_l	hip_rotation_l	knee_angle_l	ankle_angle_l	subtalar_angle_l	mtp_angle_l	lumbar_extension	lumbar_bending	lumbar_rotation	arm_flex_r	arm_add_r	arm_rot_r	elbow_flex_r	pro_sup_r	arm_flex_l	arm_add_l	arm_rot_l	elbow_flex_l	pro_sup_l
      0.00000000	    -24.72107076	     -1.07584109	     10.64923478	     -0.50595499	      0.73295650	     -0.19602999	     19.14927684	     -8.49644170	     39.99999995	     14.83087261	    -50.00000000	    -28.51625652	      0.00000000	     23.89077632	     -2.27534536	     39.99999995	      5.92722600	    -26.40502426	    -35.00000000	      0.00000000	     44.32613677	     -1.39708243	     47.41047785	    -78.49090485	     17.26476004	    -25.44734923	     91.55290722	     64.59707671	     45.21109556	     12.71457289	    -20.42304684	      0.00000000	      2.71058027
      0.01666670	    -25.36435669	      0.04065618	     10.70151334	     -0.50421549	      0.72989172	     -0.19644903	     19.85163499	     -9.36957310	     39.99999995	     14.74639106	    -50.00000000	    -30.01681960	      0.00000000	     24.62558551	     -0.40533024	     39.99999995	      6.09454581	    -26.55759848	    -35.00000000	      0.00000000	     44.78249212	     -1.82254864	     49.11085371	    -81.43969662	     19.30483652	    -24.94893748	     94.56870118	     64.36619022	     46.60646777	     13.03606230	    -20.09984231	      0.00000000	      0.00000000
      0.03333330	    -25.49802052	      0.83021689	     10.57492330	     -0.50425047	      0.72902127	     -0.19586808	     19.94579261	    -10.27515783	     39.99999995	     14.44030661	    -50.00000000	    -29.76412755	      0.00000000	     24.44517605	      0.28056694	     39.99999995	      5.94354478	    -26.97932935	    -35.00000000	      0.00000000	     44.86628509	     -2.51838586	     49.58589104	    -82.32969404	     19.00136180	    -24.06601728	     95.51445920	     64.29811726	     47.02857590	     12.86064625	    -20.32419627	      0.00000000	      0.00000000
      0.05000000	    -25.44422410	      1.16984027	     10.64712405	     -0.50564284	      0.73032142	     -0.19554879	     19.93687448	    -10.70028561	     39.99999995	     14.34696412	    -50.00000000	    -29.97341033	      0.00000000	     24.16475800	      0.59344727	     39.99999995	      5.78676881	    -26.95977130	    -35.00000000	      0.00000000	     44.79304425	     -2.83216156	     49.71200571	    -82.20433526	     18.89761221	    -23.77708149	     95.60714720	     64.27345372	     46.94172681	     12.36177921	    -20.46483240	      0.00000000	      0.00000000
      0.06666670	    -25.41555005	      1.29881516	     10.63720984	     -0.50551499	      0.73096235	     -0.19539206	     20.00300814	    -10.77257984	     39.99999995	     14.34414709	    -50.00000000	    -30.06723006	      0.00000000	     24.05383439	      0.67176620	     39.99999995	      5.64129698	    -26.95212572	    -35.00000000	      0.00000000	     44.78550961	     -2.86625357	     49.63038581	    -82.15185838	     18.86823812	    -23.70571065	     95.64068726	     64.27145041	     46.87410163	     12.43999685	    -20.50936554	      0.00000000	      0.00000000
      0.08333330	    -25.23562735	      1.36263925	     10.63576444	     -0.50583712	      0.73315114	     -0.19555759	     19.95226872	    -10.79562477	     39.99999995	     14.35748148	    -50.00000000	    -31.56172954	      0.00000000	     23.81090644	      0.72086770	     39.99999995	      5.63722474	    -26.65739576	    -35.00000000	      0.00000000	     44.64272542	     -3.07028731	     49.21904997	    -81.77344710	     17.45655359	    -22.51810375	     95.59426622	     64.15026876	     46.62164701	     12.29757995	    -21.61087480	      0.00000000	      0.00000000
      0.10000000	    -25.20334754	      1.36135721	     10.65096870	     -0.50630902	      0.73346809	     -0.19545314	     20.01664131	    -10.79559621	     39.99999995	     14.33453009	    -50.00000000	    -31.56177483	      0.00000000	     23.77254989	      0.72129685	     39.99999995	      5.65160669	    -26.65579368	    -35.00000000	      0.00000000	     44.63885821	     -3.07401478	     49.21254581	    -81.77225322	     17.45770071	    -22.51611510	     95.59441912	     64.14987395	     46.61845886	     12.30557725	    -21.61328374	      0.00000000	      0.00000000
      0.11666670	    -25.03258099	      1.39161344	     10.51603132	     -0.50559671	      0.73445003	     -0.19520265	     19.93839994	    -10.72972335	     39.99999995	     14.35419696	    -50.00000000	    -31.42262295	      0.00000000	     23.59348324	      0.68249535	     39.99999995	      5.70092962	    -26.12625288	    -35.00000000	      0.00000000	     44.34045605	     -3.11565587	     49.02217672	    -81.38206126	     17.07943725	    -22.35167690	     95.53574019	     64.07453355	     46.44202455	     12.59355663	    -21.98114644	      0.00000000	      0.00000000
      0.13333330	    -25.03306808	      1.43613502	     10.44525576	     -0.50522734	      0.73413634	     -0.19502756	     19.99220429	    -10.73204239	     39.99999995	     14.37646535	    -50.00000000	    -31.41591435	      0.00000000	     23.57414941	      0.69370470	     39.99999995	      5.74619683	    -26.11358699	    -35.00000000	      0.00000000	     44.30976380	     -3.14811793	     48.98228218	    -81.38287838	     17.07662097	    -22.33621932	     95.51990302	     64.06967796	     46.40885284	     12.60324538	    -22.00456182	      0.00000000	      0.00000000
      0.15000000	    -25.02474149	      1.45215257	     10.42721992	     -0.50509652	      0.73512519	     -0.19506050	     19.97698029	    -10.73058133	     39.99999995	     14.38472318	    -50.00000000	    -31.41504700	      0.00000000	     23.60676194	      0.69616937	     39.99999995	      5.73592086	    -26.11067742	    -35.00000000	      0.00000000	     44.30598161	     -3.15085004	     48.98083199	    -81.38175377	     17.07585176	    -22.33436323	     95.51879918	     64.06925644	     46.40355170	     12.60225161	    -22.00715647	      0.00000000	      0.00000000
